<svg version="1.1" xmlns="http://www.w3.org/2000/svg" width="64" height="64" viewBox="0 0 500 500">
<path d="M0 0 C1.03318359 -0.00773438 2.06636719 -0.01546875 3.13085938 -0.0234375 C17.64619263 0.01333345 30.23001491 4.77506939 42.0625 13.25 C43.0525 14.735 43.0525 14.735 44.0625 16.25 C42.99356782 17.28590338 41.90671512 18.30333942 40.8125 19.3125 C40.20921875 19.88097656 39.6059375 20.44945312 38.984375 21.03515625 C37.0625 22.25 37.0625 22.25 35.046875 22.078125 C32.99455963 21.22164693 31.37554954 20.22174342 29.5625 18.9375 C17.26601564 11.13917812 1.96021387 9.63174559 -12.13671875 12.53125 C-21.3221706 14.88846498 -28.47320796 18.3738552 -35.9375 24.25 C-36.92878906 25.02214844 -37.92007813 25.79429687 -38.94140625 26.58984375 C-50.10467714 35.98815659 -55.18162543 50.18132596 -56.9375 64.25 C-58.21658454 79.59901447 -52.51583222 95.02736393 -42.6875 106.6875 C-35.14134358 114.53136071 -27.38520225 119.3037568 -16.5 119.625 C-4.91832335 119.51664752 4.70236009 115.16927315 13.0625 107.25 C17.01861989 103.19343175 20.16987115 99.12179595 23.0625 94.25 C23.7225 94.25 24.3825 94.25 25.0625 94.25 C25.31128906 93.37472656 25.56007813 92.49945313 25.81640625 91.59765625 C27.12662959 88.07771455 28.72722749 85.66284278 31 82.6875 C33.06050513 79.97225493 34.99450781 77.36853794 36.69140625 74.41015625 C37.14386719 73.69730469 37.59632813 72.98445313 38.0625 72.25 C38.7225 72.25 39.3825 72.25 40.0625 72.25 C40.26875 71.56164062 40.475 70.87328125 40.6875 70.1640625 C42.51163479 66.29814048 45.11076342 63.67419958 48.0625 60.625 C49.14762621 59.48868859 50.23102642 58.35072583 51.3125 57.2109375 C51.79203125 56.71384277 52.2715625 56.21674805 52.765625 55.70458984 C54.28224128 54.07170771 54.28224128 54.07170771 56.0625 51.25 C56.7225 51.25 57.3825 51.25 58.0625 51.25 C58.0625 50.59 58.0625 49.93 58.0625 49.25 C58.7225 49.25 59.3825 49.25 60.0625 49.25 C60.0625 48.59 60.0625 47.93 60.0625 47.25 C60.7225 47.25 61.3825 47.25 62.0625 47.25 C62.0625 46.59 62.0625 45.93 62.0625 45.25 C62.7225 45.25 63.3825 45.25 64.0625 45.25 C64.0625 44.59 64.0625 43.93 64.0625 43.25 C65.35668945 42.01660156 65.35668945 42.01660156 67.17578125 40.640625 C68.17472412 39.88313965 68.17472412 39.88313965 69.19384766 39.11035156 C69.91362793 38.57893555 70.6334082 38.04751953 71.375 37.5 C72.10251465 36.96084961 72.8300293 36.42169922 73.57958984 35.86621094 C88.93786742 24.65158514 88.93786742 24.65158514 97.0625 25.25 C98.0625 26.25 98.0625 26.25 98.625 29.5 C98.0625 33.25 98.0625 33.25 96.62890625 34.61328125 C94.48816017 35.93563346 92.29561886 37.09049598 90.0625 38.25 C88.26618471 39.34658782 86.4745104 40.4508133 84.6875 41.5625 C80.31438917 44.25 80.31438917 44.25 78.0625 44.25 C78.0625 44.91 78.0625 45.57 78.0625 46.25 C76.4125 46.91 74.7625 47.57 73.0625 48.25 C73.0625 48.91 73.0625 49.57 73.0625 50.25 C67.58630952 55.25 67.58630952 55.25 65.0625 55.25 C65.0625 55.91 65.0625 56.57 65.0625 57.25 C64.4025 57.25 63.7425 57.25 63.0625 57.25 C63.0625 57.91 63.0625 58.57 63.0625 59.25 C62.4025 59.25 61.7425 59.25 61.0625 59.25 C61.0625 59.91 61.0625 60.57 61.0625 61.25 C60.4025 61.25 59.7425 61.25 59.0625 61.25 C59.0625 61.91 59.0625 62.57 59.0625 63.25 C58.4025 63.25 57.7425 63.25 57.0625 63.25 C56.67578125 64.09304687 56.67578125 64.09304687 56.28125 64.953125 C54.92080223 67.51704579 53.33461038 69.70226365 51.5625 72 C50.9540625 72.79921875 50.345625 73.5984375 49.71875 74.421875 C49.1721875 75.02515625 48.625625 75.6284375 48.0625 76.25 C47.4025 76.25 46.7425 76.25 46.0625 76.25 C45.8046875 76.80945313 45.546875 77.36890625 45.28125 77.9453125 C43.91128223 80.53595669 42.30855721 82.77068516 40.5625 85.125 C38.12899906 88.4186945 35.72218459 91.72075829 33.3828125 95.08203125 C32.93486328 95.72221191 32.48691406 96.36239258 32.02539062 97.02197266 C31.14139316 98.28763764 30.26238026 99.55680037 29.38867188 100.82958984 C28.32924475 102.33889332 27.20149027 103.79979864 26.0625 105.25 C25.4025 105.25 24.7425 105.25 24.0625 105.25 C24.0625 105.91 24.0625 106.57 24.0625 107.25 C23.4025 107.25 22.7425 107.25 22.0625 107.25 C22.0625 107.91 22.0625 108.57 22.0625 109.25 C21.4025 109.25 20.7425 109.25 20.0625 109.25 C20.0625 109.91 20.0625 110.57 20.0625 111.25 C21.7125 110.59 23.3625 109.93 25.0625 109.25 C25.0625 108.59 25.0625 107.93 25.0625 107.25 C25.7225 107.25 26.3825 107.25 27.0625 107.25 C27.3203125 106.68796875 27.578125 106.1259375 27.84375 105.546875 C29.20419777 102.98295421 30.79038962 100.79773635 32.5625 98.5 C33.1709375 97.70078125 33.779375 96.9015625 34.40625 96.078125 C34.9528125 95.47484375 35.499375 94.8715625 36.0625 94.25 C36.7225 94.25 37.3825 94.25 38.0625 94.25 C38.30226563 93.71246094 38.54203125 93.17492187 38.7890625 92.62109375 C43.23593513 84.34118059 50.12266386 76.97953922 56.4375 70.0625 C56.93685059 69.51021729 57.43620117 68.95793457 57.95068359 68.38891602 C60.44084898 65.71104339 62.61926211 63.57997103 66.0625 62.25 C66.0625 61.59 66.0625 60.93 66.0625 60.25 C66.7225 60.25 67.3825 60.25 68.0625 60.25 C68.0625 59.59 68.0625 58.93 68.0625 58.25 C68.7225 58.25 69.3825 58.25 70.0625 58.25 C70.0625 57.59 70.0625 56.93 70.0625 56.25 C71.5234375 54.9609375 71.5234375 54.9609375 73.4375 53.625 C74.06398438 53.17898437 74.69046875 52.73296875 75.3359375 52.2734375 C77.0625 51.25 77.0625 51.25 79.0625 51.25 C79.0625 50.59 79.0625 49.93 79.0625 49.25 C82.04759829 47.55556015 85.05239735 45.89955404 88.0625 44.25 C88.92488281 43.76144531 89.78726563 43.27289063 90.67578125 42.76953125 C97.17261905 39.25 97.17261905 39.25 101.5625 39.25 C104.0625 40.25 104.0625 40.25 106.0625 43.25 C106.1875 45.625 106.1875 45.625 105.0625 48.25 C102.59471283 50.24523218 99.82262352 51.69743052 97.0625 53.25 C90.32629678 57.32981356 84.08336881 61.66600342 78.05859375 66.74609375 C76.0625 68.25 76.0625 68.25 74.0625 68.25 C74.0625 68.91 74.0625 69.57 74.0625 70.25 C72.34765625 71.90625 72.34765625 71.90625 70.125 73.75 C67.14204821 76.13926999 67.14204821 76.13926999 65.0625 79.25 C64.4025 79.25 63.7425 79.25 63.0625 79.25 C63.0625 79.91 63.0625 80.57 63.0625 81.25 C62.4025 81.25 61.7425 81.25 61.0625 81.25 C61.0625 81.91 61.0625 82.57 61.0625 83.25 C60.4025 83.25 59.7425 83.25 59.0625 83.25 C59.0625 83.91 59.0625 84.57 59.0625 85.25 C58.4025 85.25 57.7425 85.25 57.0625 85.25 C56.835625 85.765625 56.60875 86.28125 56.375 86.8125 C54.58032382 90.14547005 52.56284985 93.39703671 50.0625 96.25 C49.4025 96.25 48.7425 96.25 48.0625 96.25 C47.794375 96.83265625 47.52625 97.4153125 47.25 98.015625 C46.04769009 100.27786601 44.72424087 102.05576318 43.0625 104 C42.546875 104.61359375 42.03125 105.2271875 41.5 105.859375 C40.0625 107.25 40.0625 107.25 38.0625 107.25 C38.0625 107.91 38.0625 108.57 38.0625 109.25 C37.4025 109.25 36.7425 109.25 36.0625 109.25 C36.0625 109.91 36.0625 110.57 36.0625 111.25 C34.16321079 112.9560388 32.27476159 114.51734675 30.25 116.0625 C29.66412109 116.51173828 29.07824219 116.96097656 28.47460938 117.42382812 C23.34463165 121.24496829 18.03422009 123.95318458 12.0625 126.25 C11.32 126.58 10.5775 126.91 9.8125 127.25 C2.38220596 129.9519251 -4.57820402 130.50376605 -12.4375 130.3125 C-14.21867241 130.27824668 -15.99992948 130.24806548 -17.78125 130.22265625 C-18.55662109 130.20468994 -19.33199219 130.18672363 -20.13085938 130.16821289 C-21.95982841 130.04752669 -21.95982841 130.04752669 -22.9375 131.25 C-19.45840629 131.30883728 -15.97944326 131.34387399 -12.5 131.375 C-11.52611328 131.39175781 -10.55222656 131.40851563 -9.54882812 131.42578125 C9.73383894 131.5547623 26.88665565 122.9838188 41.0625 110.25 C42.25844387 108.942863 43.42910304 107.61172693 44.5625 106.25 C45.3875 105.26 46.2125 104.27 47.0625 103.25 C47.7225 103.25 48.3825 103.25 49.0625 103.25 C49.28164063 102.734375 49.50078125 102.21875 49.7265625 101.6875 C51.60864528 98.25352441 54.00512744 95.30966864 56.4375 92.25 C56.91960937 91.63382812 57.40171875 91.01765625 57.8984375 90.3828125 C60.44682808 87.15577443 62.96739767 83.9769624 66.0625 81.25 C66.7225 81.25 67.3825 81.25 68.0625 81.25 C68.0625 80.59 68.0625 79.93 68.0625 79.25 C68.7225 79.25 69.3825 79.25 70.0625 79.25 C70.3925 78.26 70.7225 77.27 71.0625 76.25 C73.2147214 74.42192592 75.3384351 72.76603003 77.625 71.125 C78.22119141 70.66996094 78.81738281 70.21492188 79.43164062 69.74609375 C83.98576613 66.45618958 87.43639171 65.45414907 93.0625 65.25 C93.7225 65.58 94.3825 65.91 95.0625 66.25 C95.40244711 69.22768484 95.64312734 71.36171654 95.0625 74.25 C92.7220854 76.39642302 91.02354461 77.65113844 88.3125 79.125 C87.67828125 79.50140625 87.0440625 79.8778125 86.390625 80.265625 C83.34638863 82.05411387 80.24567977 83.72271678 77.0625 85.25 C77.0625 85.91 77.0625 86.57 77.0625 87.25 C75.56640625 88.6875 75.56640625 88.6875 73.625 90.25 C70.91061762 92.39525044 70.91061762 92.39525044 69.0625 95.25 C68.4025 95.25 67.7425 95.25 67.0625 95.25 C66.629375 96.1471875 66.629375 96.1471875 66.1875 97.0625 C65.0625 99.25 65.0625 99.25 63.0625 102.25 C62.4025 102.25 61.7425 102.25 61.0625 102.25 C60.629375 103.1471875 60.629375 103.1471875 60.1875 104.0625 C59.0625 106.25 59.0625 106.25 57.0625 109.25 C56.4025 109.25 55.7425 109.25 55.0625 109.25 C54.70865234 110.11044922 54.70865234 110.11044922 54.34765625 110.98828125 C52.77921172 113.74855292 50.90788363 115.37746473 48.5 117.4375 C47.69433594 118.13230469 46.88867188 118.82710938 46.05859375 119.54296875 C45.39988281 120.10628906 44.74117188 120.66960937 44.0625 121.25 C43.7325 121.58 43.4025 121.91 43.0625 122.25 C45.28709602 120.52460527 47.51010246 118.79724296 49.73046875 117.06640625 C51.50391167 115.68508136 53.28212199 114.30987472 55.0625 112.9375 C57.15228966 111.3997607 57.15228966 111.3997607 58.0625 109.25 C58.7225 109.25 59.3825 109.25 60.0625 109.25 C60.0625 108.59 60.0625 107.93 60.0625 107.25 C60.7225 107.25 61.3825 107.25 62.0625 107.25 C62.0625 106.59 62.0625 105.93 62.0625 105.25 C62.7225 105.25 63.3825 105.25 64.0625 105.25 C64.0625 104.59 64.0625 103.93 64.0625 103.25 C64.7225 103.25 65.3825 103.25 66.0625 103.25 C66.0625 102.59 66.0625 101.93 66.0625 101.25 C68.9375 100.625 68.9375 100.625 72.0625 100.25 C72.7225 100.91 73.3825 101.57 74.0625 102.25 C73.92232984 107.08999334 71.48554519 109.30802654 68.125 112.5625 C67.22910156 113.44550781 66.33320313 114.32851563 65.41015625 115.23828125 C63.0625 117.25 63.0625 117.25 61.0625 117.25 C61.0625 117.91 61.0625 118.57 61.0625 119.25 C60.4025 119.25 59.7425 119.25 59.0625 119.25 C59.0625 119.91 59.0625 120.57 59.0625 121.25 C54.67788462 124.25 54.67788462 124.25 52.0625 124.25 C52.0625 124.91 52.0625 125.57 52.0625 126.25 C49.0625 128.25 49.0625 128.25 46.0625 128.25 C46.0625 128.91 46.0625 129.57 46.0625 130.25 C30.20952587 138.26729788 11.86997649 142.77407153 -5.9375 139.25 C-6.95199219 139.05277344 -7.96648437 138.85554687 -9.01171875 138.65234375 C-17.48695142 136.85098768 -25.22587388 134.18450312 -32.9375 130.25 C-32.9375 129.59 -32.9375 128.93 -32.9375 128.25 C-32.2775 127.92 -31.6175 127.59 -30.9375 127.25 C-31.68773437 126.92128906 -32.43796875 126.59257812 -33.2109375 126.25390625 C-41.20065406 122.5408012 -50.36871766 117.85246701 -54.2109375 109.47265625 C-54.45070312 108.73917969 -54.69046875 108.00570312 -54.9375 107.25 C-55.5975 107.25 -56.2575 107.25 -56.9375 107.25 C-56.9375 106.26 -56.9375 105.27 -56.9375 104.25 C-57.5975 104.25 -58.2575 104.25 -58.9375 104.25 C-68.46485208 84.32644927 -71.26016691 64.67986237 -63.78125 43.40234375 C-61.31553261 37.11248133 -58.10989 30.58611782 -53.9375 25.25 C-53.2775 25.25 -52.6175 25.25 -51.9375 25.25 C-51.7003125 24.68023437 -51.463125 24.11046875 -51.21875 23.5234375 C-44.48483219 11.57483944 -28.86155941 4.99285031 -16.37890625 1.15625 C-10.959936 -0.15536405 -5.54628009 -0.04136443 0 0 Z M18.0625 111.25 C18.3925 111.91 18.7225 112.57 19.0625 113.25 C19.3925 112.59 19.7225 111.93 20.0625 111.25 C19.4025 111.25 18.7425 111.25 18.0625 111.25 Z M37.0625 125.25 C36.0725 125.58 35.0825 125.91 34.0625 126.25 C34.3925 126.91 34.7225 127.57 35.0625 128.25 C36.0525 127.92 37.0425 127.59 38.0625 127.25 C37.7325 126.59 37.4025 125.93 37.0625 125.25 Z " fill="#E7E7E7" transform="translate(207.9375,181.75)"/>
<path d="M0 0 C2 3 2 3 1.8125 5.5 C0.46841759 9.6356382 -1.51317113 10.74558538 -5.37109375 12.76171875 C-6.72506978 13.40678838 -8.08062821 14.04854393 -9.4375 14.6875 C-18.35678739 19.02050374 -26.62539398 23.93976968 -34.125 30.5 C-37 33 -37 33 -39 33 C-39 33.66 -39 34.32 -39 35 C-40.64453125 36.5859375 -40.64453125 36.5859375 -42.8125 38.375 C-45.64479813 40.7171919 -47.89262439 42.98186585 -50 46 C-49.20335937 45.25234375 -48.40671875 44.5046875 -47.5859375 43.734375 C-46.51583003 42.73936279 -45.44550592 41.74458352 -44.375 40.75 C-43.85292969 40.25886719 -43.33085937 39.76773438 -42.79296875 39.26171875 C-33.8703125 31 -33.8703125 31 -30 31 C-30 30.34 -30 29.68 -30 29 C-27.01018547 27.31468449 -24.00615846 25.6559684 -21 24 C-20.43200684 23.68401855 -19.86401367 23.36803711 -19.27880859 23.04248047 C-11.41152299 18.67736524 -3.6968844 14.4753521 5 12 C5.61665527 11.81953125 6.23331055 11.6390625 6.86865234 11.453125 C17.49978914 8.45401469 27.842346 7.61647372 38.875 7.5625 C40.09372803 7.55250977 41.31245605 7.54251953 42.56811523 7.53222656 C43.71868408 7.54350586 44.86925293 7.55478516 46.0546875 7.56640625 C47.08062012 7.57615479 48.10655273 7.58590332 49.16357422 7.59594727 C52.44421614 8.0632792 54.35025857 9.03439618 57 11 C58 13.4375 58 13.4375 58 16 C56.83642578 18.14233398 56.83642578 18.14233398 55 20 C52.54248047 20.40649414 52.54248047 20.40649414 49.6171875 20.28515625 C48.54057861 20.25639404 47.46396973 20.22763184 46.35473633 20.19799805 C45.20642334 20.15328369 44.05811035 20.10856934 42.875 20.0625 C12.62542902 19.49198824 -13.58053315 30.09781966 -37.22265625 48.75390625 C-39 50 -39 50 -41 50 C-41 50.66 -41 51.32 -41 52 C-42.4609375 53.5078125 -42.4609375 53.5078125 -44.375 55.125 C-45.00148438 55.66382813 -45.62796875 56.20265625 -46.2734375 56.7578125 C-48 58 -48 58 -50 58 C-50 58.66 -50 59.32 -50 60 C-50.66 60 -51.32 60 -52 60 C-52 60.66 -52 61.32 -52 62 C-52.66 62 -53.32 62 -54 62 C-54 62.66 -54 63.32 -54 64 C-54.66 64 -55.32 64 -56 64 C-56.37511719 64.87011719 -56.37511719 64.87011719 -56.7578125 65.7578125 C-58.16379834 68.29566115 -59.76421928 69.89166264 -61.875 71.875 C-64.36998148 74.28862339 -66.53261462 76.55497488 -68.375 79.5 C-68.91125 80.325 -69.4475 81.15 -70 82 C-70.66 82 -71.32 82 -72 82 C-72.268125 82.763125 -72.53625 83.52625 -72.8125 84.3125 C-73.96603641 86.92313504 -74.98629865 88.07385089 -77 90 C-77.495 91.485 -77.495 91.485 -78 93 C-78.66 93 -79.32 93 -80 93 C-80.27070313 93.73476563 -80.54140625 94.46953125 -80.8203125 95.2265625 C-81.9509617 97.88471129 -83.22828292 100.01157704 -84.875 102.375 C-86.78075931 105.15037763 -88.53967072 107.9056531 -90.125 110.875 C-92.58707898 114.97846497 -94.27786868 116.46422581 -98.8125 117.875 C-103.0248778 118.04019129 -105.33463421 117.06593345 -109 115 C-111.00516878 113.1056697 -112.396337 111.28400488 -114 109 C-114 108.34 -114 107.68 -114 107 C-114.66 107 -115.32 107 -116 107 C-117.35382149 105.51261765 -118.63139886 103.95569449 -119.875 102.375 C-124.07124627 97.11779034 -128.40223207 92.00593231 -132.83740234 86.94873047 C-141.86368637 76.54305436 -141.86368637 76.54305436 -142 70 C-140.42820848 65.78098064 -138.82719627 63.34526237 -135 61 C-132.5625 60.6015625 -132.5625 60.6015625 -130 60.625 C-128.7315625 60.61339844 -128.7315625 60.61339844 -127.4375 60.6015625 C-124.53159286 61.07656655 -123.12209747 61.98597231 -121 64 C-121 64.66 -121 65.32 -121 66 C-120.34 66 -119.68 66 -119 66 C-117.5671282 67.61718311 -116.20375251 69.29623372 -114.875 71 C-110.86981324 76.01784338 -106.62313345 80.55668282 -102 85 C-99.99767237 82.39761586 -97.99835139 79.79293855 -96 77.1875 C-95.40856201 76.41736572 -94.81712402 75.64723145 -94.20776367 74.85375977 C-90.17610573 69.58692194 -86.26995274 64.25841156 -82.48828125 58.80859375 C-81.99714844 58.21175781 -81.50601563 57.61492187 -81 57 C-80.34 57 -79.68 57 -79 57 C-79 56.34 -79 55.68 -79 55 C-78.34 55 -77.68 55 -77 55 C-76.71125 54.401875 -76.4225 53.80375 -76.125 53.1875 C-75 51 -75 51 -73 48 C-72.34 48 -71.68 48 -71 48 C-70.7628125 47.43796875 -70.525625 46.8759375 -70.28125 46.296875 C-68.71052303 43.48105958 -66.78528536 41.52044584 -64.5 39.25 C-63.7059375 38.45078125 -62.911875 37.6515625 -62.09375 36.828125 C-60 35 -60 35 -58 35 C-58 34.34 -58 33.68 -58 33 C-57.34 33 -56.68 33 -56 33 C-56 32.34 -56 31.68 -56 31 C-55.34 31 -54.68 31 -54 31 C-54 30.34 -54 29.68 -54 29 C-51.74592092 27.04018712 -49.4867439 25.19599236 -47.125 23.375 C-46.47402344 22.859375 -45.82304687 22.34375 -45.15234375 21.8125 C-40.26064401 18 -40.26064401 18 -38 18 C-38 17.34 -38 16.68 -38 16 C-31.47308964 10.56742192 -23.77074269 6.66617918 -16.1875 2.9375 C-15.38787842 2.53136475 -14.58825684 2.12522949 -13.7644043 1.70678711 C-8.82801579 -0.64301805 -5.46387623 -1.67204407 0 0 Z " fill="#EEEEEE" transform="translate(306,174)"/>
<path d="M0 0 C1.03318359 -0.00773438 2.06636719 -0.01546875 3.13085938 -0.0234375 C17.64619263 0.01333345 30.23001491 4.77506939 42.0625 13.25 C43.0525 14.735 43.0525 14.735 44.0625 16.25 C42.99356782 17.28590338 41.90671512 18.30333942 40.8125 19.3125 C40.20921875 19.88097656 39.6059375 20.44945312 38.984375 21.03515625 C37.0625 22.25 37.0625 22.25 35.046875 22.078125 C32.99455963 21.22164693 31.37554954 20.22174342 29.5625 18.9375 C17.26601564 11.13917812 1.96021387 9.63174559 -12.13671875 12.53125 C-21.3221706 14.88846498 -28.47320796 18.3738552 -35.9375 24.25 C-36.92878906 25.02214844 -37.92007813 25.79429687 -38.94140625 26.58984375 C-50.10467714 35.98815659 -55.18162543 50.18132596 -56.9375 64.25 C-57.83848724 75.06184685 -54.64987736 86.17354716 -50.9375 96.25 C-57.5625 99.125 -57.5625 99.125 -60.9375 100.25 C-69.44623404 82.03470042 -70.48588712 62.47703636 -63.78125 43.40234375 C-61.31553261 37.11248133 -58.10989 30.58611782 -53.9375 25.25 C-53.2775 25.25 -52.6175 25.25 -51.9375 25.25 C-51.7003125 24.68023437 -51.463125 24.11046875 -51.21875 23.5234375 C-44.48483219 11.57483944 -28.86155941 4.99285031 -16.37890625 1.15625 C-10.959936 -0.15536405 -5.54628009 -0.04136443 0 0 Z " fill="#EAEAEA" transform="translate(207.9375,181.75)"/>
<path d="M0 0 C1 1 1 1 1.5625 4.25 C1 8 1 8 -0.43359375 9.36328125 C-2.57433983 10.68563346 -4.76688114 11.84049598 -7 13 C-8.79631529 14.09658782 -10.5879896 15.2008133 -12.375 16.3125 C-16.74811083 19 -16.74811083 19 -19 19 C-19 19.66 -19 20.32 -19 21 C-20.65 21.66 -22.3 22.32 -24 23 C-24 23.66 -24 24.32 -24 25 C-29.47619048 30 -29.47619048 30 -32 30 C-32 30.66 -32 31.32 -32 32 C-32.66 32 -33.32 32 -34 32 C-34 32.66 -34 33.32 -34 34 C-34.66 34 -35.32 34 -36 34 C-36 34.66 -36 35.32 -36 36 C-36.66 36 -37.32 36 -38 36 C-38 36.66 -38 37.32 -38 38 C-38.66 38 -39.32 38 -40 38 C-40.2578125 38.56203125 -40.515625 39.1240625 -40.78125 39.703125 C-42.14169777 42.26704579 -43.72788962 44.45226365 -45.5 46.75 C-46.1084375 47.54921875 -46.716875 48.3484375 -47.34375 49.171875 C-47.8903125 49.77515625 -48.436875 50.3784375 -49 51 C-49.66 51 -50.32 51 -51 51 C-51.2578125 51.55945313 -51.515625 52.11890625 -51.78125 52.6953125 C-53.15121777 55.28595669 -54.75394279 57.52068516 -56.5 59.875 C-58.93350094 63.1686945 -61.34031541 66.47075829 -63.6796875 69.83203125 C-64.35161133 70.79230225 -64.35161133 70.79230225 -65.03710938 71.77197266 C-65.92110684 73.03763764 -66.80011974 74.30680037 -67.67382812 75.57958984 C-68.73325525 77.08889332 -69.86100973 78.54979864 -71 80 C-71.66 80 -72.32 80 -73 80 C-73 80.66 -73 81.32 -73 82 C-73.66 82 -74.32 82 -75 82 C-75 82.66 -75 83.32 -75 84 C-75.66 84 -76.32 84 -77 84 C-77 84.66 -77 85.32 -77 86 C-77.66 86 -78.32 86 -79 86 C-78.67 86.99 -78.34 87.98 -78 89 C-78.51949219 89.25394531 -79.03898438 89.50789063 -79.57421875 89.76953125 C-82.70876033 91.31652312 -85.76831272 92.85782826 -88.75 94.6875 C-90.87482994 95.92698413 -92.59632085 96.55487423 -95 97 C-95 96.34 -95 95.68 -95 95 C-93.71086513 94.32845067 -92.41859796 93.66291141 -91.125 93 C-90.40570313 92.62875 -89.68640625 92.2575 -88.9453125 91.875 C-87 91 -87 91 -85 91 C-85.020625 90.2575 -85.04125 89.515 -85.0625 88.75 C-84.95257981 83.91351177 -83.9482398 81.60308249 -80.625 78.0625 C-77.9936217 75.18358919 -75.9932943 72.35712725 -74 69 C-73.34 69 -72.68 69 -72 69 C-71.75121094 68.12472656 -71.50242188 67.24945313 -71.24609375 66.34765625 C-69.93587041 62.82771455 -68.33527251 60.41284278 -66.0625 57.4375 C-64.00199487 54.72225493 -62.06799219 52.11853794 -60.37109375 49.16015625 C-59.91863281 48.44730469 -59.46617187 47.73445313 -59 47 C-58.34 47 -57.68 47 -57 47 C-56.79375 46.31164062 -56.5875 45.62328125 -56.375 44.9140625 C-54.55086521 41.04814048 -51.95173658 38.42419958 -49 35.375 C-47.91487379 34.23868859 -46.83147358 33.10072583 -45.75 31.9609375 C-45.27046875 31.46384277 -44.7909375 30.96674805 -44.296875 30.45458984 C-42.78025872 28.82170771 -42.78025872 28.82170771 -41 26 C-40.34 26 -39.68 26 -39 26 C-39 25.34 -39 24.68 -39 24 C-38.34 24 -37.68 24 -37 24 C-37 23.34 -37 22.68 -37 22 C-36.34 22 -35.68 22 -35 22 C-35 21.34 -35 20.68 -35 20 C-34.34 20 -33.68 20 -33 20 C-33 19.34 -33 18.68 -33 18 C-31.70581055 16.76660156 -31.70581055 16.76660156 -29.88671875 15.390625 C-29.22075684 14.88563477 -28.55479492 14.38064453 -27.86865234 13.86035156 C-27.14887207 13.32893555 -26.4290918 12.79751953 -25.6875 12.25 C-24.95998535 11.71084961 -24.2324707 11.17169922 -23.48291016 10.61621094 C-8.12463258 -0.59841486 -8.12463258 -0.59841486 0 0 Z " fill="#E2E2E2" transform="translate(305,207)"/>
<path d="M0 0 C0.83203125 2.13671875 0.83203125 2.13671875 1 5 C-0.72088956 7.22544357 -2.27240838 8.93300599 -4.3125 10.8125 C-4.82490234 11.31458984 -5.33730469 11.81667969 -5.86523438 12.33398438 C-9.69085884 16 -9.69085884 16 -12 16 C-12 16.66 -12 17.32 -12 18 C-12.66 18 -13.32 18 -14 18 C-14 18.66 -14 19.32 -14 20 C-18.38461538 23 -18.38461538 23 -21 23 C-21 23.66 -21 24.32 -21 25 C-24 27 -24 27 -27 27 C-27 27.66 -27 28.32 -27 29 C-37.28691605 34.20238471 -48.2005037 39.02604316 -60 38 C-60.99 37.67 -61.98 37.34 -63 37 C-63 36.34 -63 35.68 -63 35 C-63.66 34.67 -64.32 34.34 -65 34 C-57.375 32.875 -57.375 32.875 -54 34 C-54 33.34 -54 32.68 -54 32 C-51 31 -51 31 -48 32 C-47.67 31.34 -47.34 30.68 -47 30 C-45.29296875 29.18359375 -45.29296875 29.18359375 -43.1875 28.4375 C-42.50042969 28.18871094 -41.81335938 27.93992187 -41.10546875 27.68359375 C-39.08508011 27.02762341 -37.06680486 26.48767306 -35 26 C-35 25.34 -35 24.68 -35 24 C-33.37824382 22.87013678 -31.69953157 21.82159687 -30 20.8125 C-21.29480042 15.6510951 -21.29480042 15.6510951 -15 8 C-14.34 8 -13.68 8 -13 8 C-13 7.34 -13 6.68 -13 6 C-12.34 6 -11.68 6 -11 6 C-11 5.34 -11 4.68 -11 4 C-10.34 4 -9.68 4 -9 4 C-9 3.34 -9 2.68 -9 2 C-8.34 2 -7.68 2 -7 2 C-7 1.34 -7 0.68 -7 0 C-4.3333581 -1.33332095 -2.83319697 -0.67102033 0 0 Z " fill="#DADADA" transform="translate(281,283)"/>
<path d="M0 0 C1.5625 1.25 1.5625 1.25 3 3 C2.86469349 6.92388875 0.28166247 9.95778338 -2 13 C-2.66 13 -3.32 13 -4 13 C-4 13.66 -4 14.32 -4 15 C-4.66 15 -5.32 15 -6 15 C-6 15.66 -6 16.32 -6 17 C-6.66 17 -7.32 17 -8 17 C-8 17.66 -8 18.32 -8 19 C-8.66 19 -9.32 19 -10 19 C-9.67 19.99 -9.34 20.98 -9 22 C-9.51949219 22.25394531 -10.03898438 22.50789063 -10.57421875 22.76953125 C-13.70876033 24.31652312 -16.76831272 25.85782826 -19.75 27.6875 C-21.87482994 28.92698413 -23.59632085 29.55487423 -26 30 C-26 29.34 -26 28.68 -26 28 C-24.71086513 27.32845067 -23.41859796 26.66291141 -22.125 26 C-21.40570313 25.62875 -20.68640625 25.2575 -19.9453125 24.875 C-18 24 -18 24 -16 24 C-16.020625 23.2575 -16.04125 22.515 -16.0625 21.75 C-15.95257981 16.91351177 -14.9482398 14.60308249 -11.625 11.0625 C-9.51836058 8.76318014 -7.91809896 6.85509816 -6.375 4.125 C-4.63272418 1.43239191 -3.01925058 0.89761504 0 0 Z " fill="#D4D4D3" transform="translate(236,274)"/>
<path d="M0 0 C1.65 0 3.3 0 5 0 C5 1.32 5 2.64 5 4 C6.12535156 3.98259766 6.12535156 3.98259766 7.2734375 3.96484375 C13.92337417 3.9062171 20.40004873 4.18230692 27 5 C25.02 5.99 25.02 5.99 23 7 C23.33 7.66 23.66 8.32 24 9 C27.02934491 9.65772428 27.02934491 9.65772428 30 10 C30 10.33 30 10.66 30 11 C17.8854848 13.61293465 5.69952568 8.45894167 -5 3 C-5 2.34 -5 1.68 -5 1 C-2.525 1.495 -2.525 1.495 0 2 C0 1.34 0 0.68 0 0 Z " fill="#C4C4C4" transform="translate(180,309)"/>
<path d="M0 0 C1.875 1 1.875 1 3 3 C3.41998341 5.85238734 3.27946081 8.06566149 3 11 C0 13 0 13 -3.5625 12.75 C-7 12 -7 12 -9 10 C-9.55021834 3.94759825 -9.55021834 3.94759825 -7.875 1.0625 C-5.11019567 -0.50422245 -3.11811483 -0.38976435 0 0 Z " fill="#D8D8D8" transform="translate(339,197)"/>
<path d="M0 0 C3.0625 0.3125 3.0625 0.3125 4.9375 1.375 C6.68223477 4.37982099 6.37085443 6.92060131 6.0625 10.3125 C4.0625 12.3125 4.0625 12.3125 0.5625 12.5625 C-2.9375 12.3125 -2.9375 12.3125 -4.9375 10.3125 C-5.203125 8.4375 -5.203125 8.4375 -5.1875 6.3125 C-5.19265625 5.61125 -5.1978125 4.91 -5.203125 4.1875 C-4.71881191 0.76881939 -3.24057423 0.34474194 0 0 Z " fill="#E3E3E3" transform="translate(317.9375,167.6875)"/>
<path d="M0 0 C3.29714793 0.32971479 4.6226839 0.6226839 7 3 C6.625 6.625 6.625 6.625 6 10 C0.58860759 11.32278481 0.58860759 11.32278481 -1.9375 9.9375 C-3.52971202 7.03405456 -2.86084757 5.11229504 -2 2 C-1.34 1.34 -0.68 0.68 0 0 Z " fill="#D4D4D4" transform="translate(315,201)"/>
<path d="M0 0 C2.875 -0.125 2.875 -0.125 6 0 C8 2 8 2 8.25 5 C8 8 8 8 6 10 C3.12987704 10.36796448 1.59225382 10.37509409 -0.875 8.8125 C-2 7 -2 7 -1.75 4.4375 C-1 2 -1 2 0 0 Z " fill="#CDCDCD" transform="translate(309,242)"/>
<path d="M0 0 C2.875 -0.125 2.875 -0.125 6 0 C8 2 8 2 8.3125 5 C8.1578125 6.485 8.1578125 6.485 8 8 C5 10 5 10 2.4375 9.8125 C0 9 0 9 -2 6 C-1.65394389 3.71602968 -1.03295481 2.06590963 0 0 Z " fill="#D5D5D5" transform="translate(285,274)"/>
<path d="M0 0 C-0.61390396 3.00130824 -1.16229766 5.28468238 -3.55078125 7.32421875 C-6.24534721 8.96865408 -8.24356583 10.07758299 -11.4375 9.75 C-11.953125 9.5025 -12.46875 9.255 -13 9 C-12.64463519 6.18771639 -12.19649652 5.17418516 -10.0390625 3.26171875 C-9.24242187 2.74222656 -8.44578125 2.22273438 -7.625 1.6875 C-6.83351562 1.15511719 -6.04203125 0.62273437 -5.2265625 0.07421875 C-3 -1 -3 -1 0 0 Z " fill="#E0E0E0" transform="translate(222,292)"/>
<path d="M0 0 C1.65 0 3.3 0 5 0 C5 1.32 5 2.64 5 4 C6.98 4 8.96 4 11 4 C11 4.33 11 4.66 11 5 C4.44037463 6.16615562 1.13277102 5.77710386 -5 3 C-5 2.34 -5 1.68 -5 1 C-2.525 1.495 -2.525 1.495 0 2 C0 1.34 0 0.68 0 0 Z " fill="#BBBBBB" transform="translate(180,309)"/>
<path d="M0 0 C0 0.99 0 1.98 0 3 C1.65 3.33 3.3 3.66 5 4 C5 4.33 5 4.66 5 5 C-1.625 5.125 -1.625 5.125 -5 4 C-5 3.34 -5 2.68 -5 2 C-5.66 1.67 -6.32 1.34 -7 1 C-3.535 0.505 -3.535 0.505 0 0 Z " fill="#A9A9A9" transform="translate(223,316)"/>
<path d="M0 0 C0.33 1.32 0.66 2.64 1 4 C0.34 4 -0.32 4 -1 4 C-1.33 5.32 -1.66 6.64 -2 8 C-3.65 8.33 -5.3 8.66 -7 9 C-6.02180976 7.68677212 -5.0424189 6.37443848 -4.0625 5.0625 C-3.51722656 4.33160156 -2.97195312 3.60070312 -2.41015625 2.84765625 C-1 1 -1 1 0 0 Z " fill="#CACAC9" transform="translate(243,278)"/>
<path d="M0 0 C0.66 0.33 1.32 0.66 2 1 C0.92643323 2.15498897 -0.15929788 3.29867867 -1.25 4.4375 C-1.85328125 5.07558594 -2.4565625 5.71367187 -3.078125 6.37109375 C-5.10048016 8.08516306 -6.41270605 8.59358878 -9 9 C-6.21000549 5.51250686 -3.74764169 2.49842779 0 0 Z " fill="#B4B4B3" transform="translate(168,194)"/>
<path d="M0 0 C0.94875 0.04125 1.8975 0.0825 2.875 0.125 C0.875 2.125 0.875 2.125 -1.1875 2.875 C-3.48539986 4.04169817 -3.48539986 4.04169817 -3.875 7.25 C-3.9575 8.19875 -4.04 9.1475 -4.125 10.125 C-4.455 10.125 -4.785 10.125 -5.125 10.125 C-5.3203125 4.0703125 -5.3203125 4.0703125 -5.125 2.125 C-3.125 0.125 -3.125 0.125 0 0 Z " fill="#B8B8B8" transform="translate(318.125,167.875)"/>
<path d="M0 0 C0.66 1.32 1.32 2.64 2 4 C-4.15234375 3.4140625 -4.15234375 3.4140625 -6 3 C-6.33 2.34 -6.66 1.68 -7 1 C-3.535 0.505 -3.535 0.505 0 0 Z " fill="#F0F0F0" transform="translate(191,313)"/>
<path d="M0 0 C3.625 -0.1875 3.625 -0.1875 7 0 C5.875 1.5 5.875 1.5 4 3 C0.8125 3.1875 0.8125 3.1875 -2 3 C-1.34 2.01 -0.68 1.02 0 0 Z " fill="#F8F9F9" transform="translate(224,317)"/>
<path d="M0 0 C0.33 0.66 0.66 1.32 1 2 C-0.61594832 4.04119788 -2.2856382 6.04072937 -4 8 C-4.66 8 -5.32 8 -6 8 C-4.55746343 4.63408134 -2.66735273 2.48952921 0 0 Z " fill="#A3A3A3" transform="translate(241,214)"/>
</svg>
