<svg version="1.1" xmlns="http://www.w3.org/2000/svg" width="64" height="64" viewBox="0 0 500 500">
<path d="M0 0 C0.56203125 0.43570313 1.1240625 0.87140625 1.703125 1.3203125 C1.37098349 4.42029996 0.6486238 5.3748137 -1.609375 7.6328125 C-4.296875 9.3203125 -4.296875 9.3203125 -6.2109375 9.0703125 C-8.4551598 8.26340111 -10.31832635 7.24007178 -12.359375 6.0078125 C-26.25571378 -1.78769462 -40.76085813 -3.43185868 -56.296875 0.3203125 C-68.74282301 4.1121538 -79.91317996 11.28196359 -87.421875 21.9453125 C-87.85564453 22.55995361 -88.28941406 23.17459473 -88.73632812 23.80786133 C-97.43690393 36.54021002 -99.74386175 51.4193733 -97.234375 66.4453125 C-94.1322491 82.01439915 -85.74996919 93.92251112 -72.7890625 102.91015625 C-64.64428901 107.51871931 -55.11221516 107.57144685 -46.171875 105.2578125 C-35.06390723 101.36912362 -25.5868873 93.72470873 -19.671875 83.515625 C-18.99125 82.42894531 -18.99125 82.42894531 -18.296875 81.3203125 C-17.636875 81.3203125 -16.976875 81.3203125 -16.296875 81.3203125 C-16.19246094 80.76214844 -16.08804688 80.20398438 -15.98046875 79.62890625 C-13.38436768 70.86150208 -5.93647693 63.08679587 -0.3359375 55.97265625 C1.6809041 53.5235794 1.6809041 53.5235794 2.703125 51.3203125 C3.363125 51.3203125 4.023125 51.3203125 4.703125 51.3203125 C4.950625 50.7634375 5.198125 50.2065625 5.453125 49.6328125 C6.93237318 46.89620337 8.63779939 44.64380381 10.703125 42.3203125 C11.363125 42.3203125 12.023125 42.3203125 12.703125 42.3203125 C12.703125 41.6603125 12.703125 41.0003125 12.703125 40.3203125 C13.363125 40.3203125 14.023125 40.3203125 14.703125 40.3203125 C14.703125 39.6603125 14.703125 39.0003125 14.703125 38.3203125 C15.363125 38.3203125 16.023125 38.3203125 16.703125 38.3203125 C17.074375 37.3921875 17.074375 37.3921875 17.453125 36.4453125 C18.90941139 33.96962563 20.08125006 33.36906248 22.703125 32.3203125 C22.703125 31.6603125 22.703125 31.0003125 22.703125 30.3203125 C26.16466346 27.3203125 26.16466346 27.3203125 28.703125 27.3203125 C28.703125 26.6603125 28.703125 26.0003125 28.703125 25.3203125 C35.93827475 19.23085891 45.91729749 11.52346655 55.703125 12.3203125 C56.703125 13.3203125 56.703125 13.3203125 57.265625 16.5703125 C56.703125 20.3203125 56.703125 20.3203125 55.1640625 21.75390625 C53.05704055 23.05960904 50.91445516 24.20114017 48.703125 25.3203125 C47.40867677 26.08646561 46.11675865 26.85691939 44.828125 27.6328125 C41.703125 29.3203125 41.703125 29.3203125 39.703125 29.3203125 C39.703125 29.9803125 39.703125 30.6403125 39.703125 31.3203125 C34.29136029 35.3203125 34.29136029 35.3203125 31.703125 35.3203125 C31.703125 35.9803125 31.703125 36.6403125 31.703125 37.3203125 C30.0234375 39.046875 30.0234375 39.046875 27.828125 40.9453125 C27.10882813 41.57695312 26.38953125 42.20859375 25.6484375 42.859375 C23.703125 44.3203125 23.703125 44.3203125 21.703125 44.3203125 C21.703125 44.9803125 21.703125 45.6403125 21.703125 46.3203125 C21.043125 46.3203125 20.383125 46.3203125 19.703125 46.3203125 C19.703125 46.9803125 19.703125 47.6403125 19.703125 48.3203125 C19.043125 48.3203125 18.383125 48.3203125 17.703125 48.3203125 C17.4659375 48.86171875 17.22875 49.403125 16.984375 49.9609375 C15.35964743 52.95281387 13.3529373 55.43190649 11.203125 58.0703125 C10.4090625 59.05515625 9.615 60.04 8.796875 61.0546875 C7.76046875 62.17617188 7.76046875 62.17617188 6.703125 63.3203125 C6.043125 63.3203125 5.383125 63.3203125 4.703125 63.3203125 C4.043125 64.9703125 3.383125 66.6203125 2.703125 68.3203125 C2.043125 68.3203125 1.383125 68.3203125 0.703125 68.3203125 C0.414375 68.8978125 0.125625 69.4753125 -0.171875 70.0703125 C-1.21354167 72.15364583 -2.25520833 74.23697917 -3.296875 76.3203125 C-3.956875 76.3203125 -4.616875 76.3203125 -5.296875 76.3203125 C-5.3896875 77.403125 -5.3896875 77.403125 -5.484375 78.5078125 C-6.53910926 82.15881572 -8.57837426 83.74122205 -11.296875 86.3203125 C-11.296875 86.9803125 -11.296875 87.6403125 -11.296875 88.3203125 C-10.636875 88.3203125 -9.976875 88.3203125 -9.296875 88.3203125 C-9.296875 87.6603125 -9.296875 87.0003125 -9.296875 86.3203125 C-8.636875 86.3203125 -7.976875 86.3203125 -7.296875 86.3203125 C-7.090625 85.6603125 -6.884375 85.0003125 -6.671875 84.3203125 C-4.80563248 80.24851064 -2.32125973 76.63234252 0.703125 73.3203125 C1.363125 73.3203125 2.023125 73.3203125 2.703125 73.3203125 C2.82880859 72.4540625 2.82880859 72.4540625 2.95703125 71.5703125 C3.92005552 68.66611366 5.40614792 67.38912311 7.640625 65.3203125 C10.3522878 62.80058227 12.24421588 60.74225639 13.703125 57.3203125 C14.363125 57.3203125 15.023125 57.3203125 15.703125 57.3203125 C16.08984375 56.43085938 16.08984375 56.43085938 16.484375 55.5234375 C17.80082395 53.14370285 19.12893282 51.81052458 21.203125 50.0703125 C21.8115625 49.54953125 22.42 49.02875 23.046875 48.4921875 C24.703125 47.3203125 24.703125 47.3203125 26.703125 47.3203125 C26.703125 46.6603125 26.703125 46.0003125 26.703125 45.3203125 C27.363125 45.3203125 28.023125 45.3203125 28.703125 45.3203125 C29.033125 44.3303125 29.363125 43.3403125 29.703125 42.3203125 C35.07455357 38.3203125 35.07455357 38.3203125 37.703125 38.3203125 C37.703125 37.6603125 37.703125 37.0003125 37.703125 36.3203125 C43.91613267 31.78053654 52.25630589 26.23946124 60.140625 26.3828125 C62.703125 27.3203125 62.703125 27.3203125 64.703125 30.3203125 C64.828125 32.6953125 64.828125 32.6953125 63.703125 35.3203125 C61.23533783 37.31554468 58.46324852 38.76774302 55.703125 40.3203125 C48.96692178 44.40012606 42.72399381 48.73631592 36.69921875 53.81640625 C34.703125 55.3203125 34.703125 55.3203125 32.703125 55.3203125 C32.703125 55.9803125 32.703125 56.6403125 32.703125 57.3203125 C32.043125 57.3203125 31.383125 57.3203125 30.703125 57.3203125 C30.703125 57.9803125 30.703125 58.6403125 30.703125 59.3203125 C29.08209532 61.03139939 27.40809037 62.69284556 25.703125 64.3203125 C24.98125 65.0834375 24.259375 65.8465625 23.515625 66.6328125 C21.703125 68.3203125 21.703125 68.3203125 19.703125 68.3203125 C19.703125 68.9803125 19.703125 69.6403125 19.703125 70.3203125 C19.043125 70.3203125 18.383125 70.3203125 17.703125 70.3203125 C17.703125 70.9803125 17.703125 71.6403125 17.703125 72.3203125 C17.043125 72.3203125 16.383125 72.3203125 15.703125 72.3203125 C15.47625 73.0215625 15.249375 73.7228125 15.015625 74.4453125 C13.36471212 78.06159785 11.4122415 80.40801226 8.703125 83.3203125 C8.043125 83.3203125 7.383125 83.3203125 6.703125 83.3203125 C6.414375 83.9184375 6.125625 84.5165625 5.828125 85.1328125 C4.703125 87.3203125 4.703125 87.3203125 2.703125 90.3203125 C2.043125 90.3203125 1.383125 90.3203125 0.703125 90.3203125 C0.703125 90.9803125 0.703125 91.6403125 0.703125 92.3203125 C0.043125 92.3203125 -0.616875 92.3203125 -1.296875 92.3203125 C-1.296875 92.9803125 -1.296875 93.6403125 -1.296875 94.3203125 C-1.956875 94.3203125 -2.616875 94.3203125 -3.296875 94.3203125 C-3.52375 95.0834375 -3.750625 95.8465625 -3.984375 96.6328125 C-5.57783679 99.8956152 -7.06025836 100.78291959 -10.296875 102.3203125 C-10.956875 102.3203125 -11.616875 102.3203125 -12.296875 102.3203125 C-12.296875 102.9803125 -12.296875 103.6403125 -12.296875 104.3203125 C-23.51615071 112.47791773 -36.85446858 116.98295881 -50.609375 117.8828125 C-51.86363281 117.96660156 -53.11789063 118.05039062 -54.41015625 118.13671875 C-55.36277344 118.19730469 -56.31539062 118.25789062 -57.296875 118.3203125 C-38.22084607 119.10306749 -21.64433156 114.39809151 -6.58203125 102.546875 C-5.15969292 101.32783731 -5.15969292 101.32783731 -4.296875 99.3203125 C-3.54148437 98.87945312 -2.78609375 98.43859375 -2.0078125 97.984375 C6.48705024 92.76994917 12.80256371 82.68358427 18.609375 74.69921875 C25.76637739 65.28562419 35.69135405 56.93815193 46.703125 52.3203125 C50.578125 52.6328125 50.578125 52.6328125 53.703125 53.3203125 C54.04307211 56.29799734 54.28375234 58.43202904 53.703125 61.3203125 C51.3627104 63.46673552 49.66416961 64.72145094 46.953125 66.1953125 C46.31890625 66.57171875 45.6846875 66.948125 45.03125 67.3359375 C41.98701363 69.12442637 38.88630477 70.79302928 35.703125 72.3203125 C35.703125 72.9803125 35.703125 73.6403125 35.703125 74.3203125 C35.043125 74.3203125 34.383125 74.3203125 33.703125 74.3203125 C33.703125 74.9803125 33.703125 75.6403125 33.703125 76.3203125 C33.043125 76.3203125 32.383125 76.3203125 31.703125 76.3203125 C31.703125 76.9803125 31.703125 77.6403125 31.703125 78.3203125 C31.043125 78.3203125 30.383125 78.3203125 29.703125 78.3203125 C29.703125 78.9803125 29.703125 79.6403125 29.703125 80.3203125 C29.043125 80.3203125 28.383125 80.3203125 27.703125 80.3203125 C27.455625 80.8771875 27.208125 81.4340625 26.953125 82.0078125 C25.48727446 84.719636 23.64856801 86.9355759 21.703125 89.3203125 C21.373125 89.9803125 21.043125 90.6403125 20.703125 91.3203125 C21.363125 91.6503125 22.023125 91.9803125 22.703125 92.3203125 C22.703125 91.3303125 22.703125 90.3403125 22.703125 89.3203125 C24.683125 88.3303125 26.663125 87.3403125 28.703125 86.3203125 C30.023125 87.3103125 31.343125 88.3003125 32.703125 89.3203125 C32.27259657 94.1967059 30.21720003 96.29018245 26.765625 99.6328125 C25.86972656 100.51582031 24.97382813 101.39882813 24.05078125 102.30859375 C21.703125 104.3203125 21.703125 104.3203125 19.703125 104.3203125 C19.703125 104.9803125 19.703125 105.6403125 19.703125 106.3203125 C19.043125 106.3203125 18.383125 106.3203125 17.703125 106.3203125 C17.703125 106.9803125 17.703125 107.6403125 17.703125 108.3203125 C15.83965009 109.84525105 13.99930814 111.21662827 12.015625 112.5703125 C11.42910156 112.97072754 10.84257812 113.37114258 10.23828125 113.78369141 C-2.04802211 121.95815232 -14.75647643 125.6425742 -29.296875 127.3203125 C-29.626875 127.6503125 -29.956875 127.9803125 -30.296875 128.3203125 C-38.49700017 128.00819701 -46.53002983 126.95810897 -54.296875 124.3203125 C-56.25364216 123.85533813 -58.21216917 123.39774145 -60.171875 122.9453125 C-65.36677618 121.68221308 -69.63703999 119.91906664 -74.296875 117.3203125 C-74.296875 116.6603125 -74.296875 116.0003125 -74.296875 115.3203125 C-73.306875 115.3203125 -72.316875 115.3203125 -71.296875 115.3203125 C-71.296875 114.6603125 -71.296875 114.0003125 -71.296875 113.3203125 C-72.02390625 113.1965625 -72.7509375 113.0728125 -73.5 112.9453125 C-84.50435143 110.48623955 -92.94311222 102.56218913 -99.109375 93.3984375 C-108.99740792 76.09437989 -112.44444481 56.82168273 -107.296875 37.3203125 C-107.13703125 36.54816406 -106.9771875 35.77601563 -106.8125 34.98046875 C-102.6195093 17.50023047 -87.9897225 3.26583515 -73.3125 -5.921875 C-71.34534534 -7.00633206 -69.38842929 -7.85918284 -67.296875 -8.6796875 C-66.38550781 -9.0509375 -65.47414062 -9.4221875 -64.53515625 -9.8046875 C-42.96345761 -17.29883612 -18.35924243 -13.42597661 0 0 Z M-19.296875 94.3203125 C-19.296875 94.9803125 -19.296875 95.6403125 -19.296875 96.3203125 C-19.956875 96.3203125 -20.616875 96.3203125 -21.296875 96.3203125 C-20.966875 96.9803125 -20.636875 97.6403125 -20.296875 98.3203125 C-18.976875 97.0003125 -17.656875 95.6803125 -16.296875 94.3203125 C-17.286875 94.3203125 -18.276875 94.3203125 -19.296875 94.3203125 Z M-23.296875 98.3203125 C-22.966875 98.9803125 -22.636875 99.6403125 -22.296875 100.3203125 C-21.966875 99.6603125 -21.636875 99.0003125 -21.296875 98.3203125 C-21.956875 98.3203125 -22.616875 98.3203125 -23.296875 98.3203125 Z M-66.296875 115.3203125 C-66.296875 115.9803125 -66.296875 116.6403125 -66.296875 117.3203125 C-63.326875 117.8153125 -63.326875 117.8153125 -60.296875 118.3203125 C-62.96935134 115.97743832 -62.96935134 115.97743832 -66.296875 115.3203125 Z " fill="#191918" transform="translate(249.296875,194.6796875)"/>
<path d="M0 0 C1.9375 1.6875 1.9375 1.6875 3 4 C2.87021507 6.66059099 2.5399077 8.29560429 0.91015625 10.421875 C-1.90833907 12.75044782 -5.15223205 14.14045487 -8.4375 15.6875 C-17.35678739 20.02050374 -25.62539398 24.93976968 -33.125 31.5 C-36 34 -36 34 -38 34 C-38 34.66 -38 35.32 -38 36 C-38.66 36 -39.32 36 -40 36 C-40 36.66 -40 37.32 -40 38 C-39.37351562 37.566875 -38.74703125 37.13375 -38.1015625 36.6875 C-37.28429687 36.130625 -36.46703125 35.57375 -35.625 35 C-34.81289063 34.443125 -34.00078125 33.88625 -33.1640625 33.3125 C-31 32 -31 32 -29 32 C-29 31.34 -29 30.68 -29 30 C-26.01018547 28.31468449 -23.00615846 26.6559684 -20 25 C-19.43200684 24.68401855 -18.86401367 24.36803711 -18.27880859 24.04248047 C-10.41072777 19.67692402 -2.69671671 15.47845362 6 13 C6.61133789 12.81953125 7.22267578 12.6390625 7.85253906 12.453125 C18.61790239 9.3876632 29.2011408 8.56783165 40.375 8.4375 C42.27451416 8.39737793 42.27451416 8.39737793 44.21240234 8.35644531 C54.18891387 8.39677618 54.18891387 8.39677618 57.35546875 11.3671875 C59 14 59 14 58.9375 16.6875 C58 19 58 19 56 21 C53.65600586 21.17944336 53.65600586 21.17944336 50.71484375 21.08984375 C49.63477051 21.06760742 48.55469727 21.04537109 47.44189453 21.02246094 C46.28544434 20.99442383 45.12899414 20.96638672 43.9375 20.9375 C13.18591081 20.57546897 -11.60081824 31.43635474 -36.01147461 49.63061523 C-37.94413893 50.96153165 -39.87729629 52.00655208 -42 53 C-42 53.66 -42 54.32 -42 55 C-46.47058824 59 -46.47058824 59 -49 59 C-49.37125 59.928125 -49.37125 59.928125 -49.75 60.875 C-51.23740369 63.40358627 -52.43678009 63.71839004 -55 65 C-55.67129225 66.33101049 -56.33712389 67.66477812 -57 69 C-58.12304892 70.45148775 -59.29221983 71.8682176 -60.5 73.25 C-61.1084375 73.95640625 -61.716875 74.6628125 -62.34375 75.390625 C-64 77 -64 77 -66 77 C-66.24621094 77.54398437 -66.49242187 78.08796875 -66.74609375 78.6484375 C-68.275946 81.5175062 -70.12442815 84.01511014 -72.0625 86.625 C-74.75476379 90.17515164 -74.75476379 90.17515164 -77 94 C-77.66 94 -78.32 94 -79 94 C-79.27070313 94.73476563 -79.54140625 95.46953125 -79.8203125 96.2265625 C-80.9509617 98.88471129 -82.22828292 101.01157704 -83.875 103.375 C-85.77861501 106.15400001 -87.56709417 108.92198242 -89.1875 111.875 C-92.50683683 117.59799453 -92.50683683 117.59799453 -97.25 118.875 C-101.76966531 119.02565551 -104.0858634 118.24700434 -108 116 C-110.00207221 114.10383085 -111.39692418 112.2831686 -113 110 C-113 109.34 -113 108.68 -113 108 C-113.66 108 -114.32 108 -115 108 C-115 107.34 -115 106.68 -115 106 C-115.66 106 -116.32 106 -117 106 C-118.9453125 103.8828125 -118.9453125 103.8828125 -121.125 101.125 C-121.84945312 100.22007812 -122.57390625 99.31515625 -123.3203125 98.3828125 C-125 96 -125 96 -125 94 C-125.66 94 -126.32 94 -127 94 C-128.51984883 92.32464541 -129.96706453 90.58294378 -131.375 88.8125 C-132.14585937 87.84957031 -132.91671875 86.88664062 -133.7109375 85.89453125 C-134.46632812 84.93933594 -135.22171875 83.98414063 -136 83 C-136.73605469 82.12601562 -137.47210938 81.25203125 -138.23046875 80.3515625 C-140.61505415 77.18264326 -140.93083474 74.9424201 -141 71 C-139.44976714 66.75725744 -137.83245442 64.35529171 -134 62 C-131.5625 61.6015625 -131.5625 61.6015625 -129 61.625 C-127.7315625 61.61339844 -127.7315625 61.61339844 -126.4375 61.6015625 C-123.53159286 62.07656655 -122.12209747 62.98597231 -120 65 C-120 65.66 -120 66.32 -120 67 C-119.34 67 -118.68 67 -118 67 C-116.5671282 68.61718311 -115.20375251 70.29623372 -113.875 72 C-109.86981324 77.01784338 -105.62313345 81.55668282 -101 86 C-98.99767237 83.39761586 -96.99835139 80.79293855 -95 78.1875 C-94.40856201 77.41736572 -93.81712402 76.64723145 -93.20776367 75.85375977 C-89.17610573 70.58692194 -85.26995274 65.25841156 -81.48828125 59.80859375 C-80.99714844 59.21175781 -80.50601563 58.61492187 -80 58 C-79.34 58 -78.68 58 -78 58 C-78 57.34 -78 56.68 -78 56 C-77.34 56 -76.68 56 -76 56 C-75.71125 55.401875 -75.4225 54.80375 -75.125 54.1875 C-74 52 -74 52 -72 49 C-71.34 49 -70.68 49 -70 49 C-69.76023437 48.4328125 -69.52046875 47.865625 -69.2734375 47.28125 C-67.73905388 44.53253825 -65.88270062 42.69019462 -63.625 40.5 C-62.85414063 39.7471875 -62.08328125 38.994375 -61.2890625 38.21875 C-60.53367187 37.4865625 -59.77828125 36.754375 -59 36 C-58.28585938 35.2471875 -57.57171875 34.494375 -56.8359375 33.71875 C-55 32 -55 32 -53 32 C-53 31.34 -53 30.68 -53 30 C-52.34 30 -51.68 30 -51 30 C-51 29.34 -51 28.68 -51 28 C-49.07412421 26.36860063 -47.15673283 24.86276775 -45.125 23.375 C-44.56941406 22.95476562 -44.01382813 22.53453125 -43.44140625 22.1015625 C-39.26235288 19 -39.26235288 19 -37 19 C-37 18.34 -37 17.68 -37 17 C-28.08290769 10.49540869 -17.89979548 5.78868274 -8 1 C-5.17116253 -0.41441874 -3.12623255 -0.31900332 0 0 Z M-42 38 C-42.99 39.485 -42.99 39.485 -44 41 C-43.01 41 -42.02 41 -41 41 C-40.67 40.01 -40.34 39.02 -40 38 C-40.66 38 -41.32 38 -42 38 Z M-51 47 C-50 49 -50 49 -50 49 Z M-53 49 C-52.67 49.66 -52.34 50.32 -52 51 C-51.67 50.34 -51.34 49.68 -51 49 C-51.66 49 -52.32 49 -53 49 Z " fill="#101010" transform="translate(305,173)"/>
<path d="M0 0 C0.33994711 2.97768484 0.58062734 5.11171654 0 8 C-2.3404146 10.14642302 -4.03895539 11.40113844 -6.75 12.875 C-7.70132813 13.43960937 -7.70132813 13.43960937 -8.671875 14.015625 C-11.71611137 15.80411387 -14.81682023 17.47271678 -18 19 C-18 19.66 -18 20.32 -18 21 C-18.66 21 -19.32 21 -20 21 C-20 21.66 -20 22.32 -20 23 C-20.66 23 -21.32 23 -22 23 C-22 23.66 -22 24.32 -22 25 C-22.66 25 -23.32 25 -24 25 C-24 25.66 -24 26.32 -24 27 C-24.66 27 -25.32 27 -26 27 C-26.37125 27.8353125 -26.37125 27.8353125 -26.75 28.6875 C-28.21585054 31.3993235 -30.05455699 33.6152634 -32 36 C-32.495 36.99 -32.495 36.99 -33 38 C-32.34 38.33 -31.68 38.66 -31 39 C-31 38.01 -31 37.02 -31 36 C-29.02 35.01 -27.04 34.02 -25 33 C-23.68 33.99 -22.36 34.98 -21 36 C-21.43052843 40.8763934 -23.48592497 42.96986995 -26.9375 46.3125 C-27.83339844 47.19550781 -28.72929687 48.07851563 -29.65234375 48.98828125 C-32 51 -32 51 -34 51 C-34 51.66 -34 52.32 -34 53 C-34.66 53 -35.32 53 -36 53 C-36 53.66 -36 54.32 -36 55 C-37.86347491 56.52493855 -39.70381686 57.89631577 -41.6875 59.25 C-42.27402344 59.65041504 -42.86054688 60.05083008 -43.46484375 60.46337891 C-55.75114711 68.63783982 -68.45960143 72.3222617 -83 74 C-83.33 74.33 -83.66 74.66 -84 75 C-92.19633727 74.68802869 -100.23750955 73.64254994 -108 71 C-109.99369031 70.63079809 -111.99279077 70.28674418 -114 70 C-114 69.67 -114 69.34 -114 69 C-111.525 68.505 -111.525 68.505 -109 68 C-109.33 67.34 -109.66 66.68 -110 66 C-108.71867188 65.91363281 -107.43734375 65.82726562 -106.1171875 65.73828125 C-88.81679763 64.4029656 -72.01262416 60.32774921 -59 48 C-58.505 47.01 -58.505 47.01 -58 46 C-57.24460938 45.55914062 -56.48921875 45.11828125 -55.7109375 44.6640625 C-47.21607476 39.44963667 -40.90056129 29.36327177 -35.09375 21.37890625 C-27.56663057 11.4784973 -13.35309808 -2.93768158 0 0 Z " fill="#1A1A1A" transform="translate(303,248)"/>
<path d="M0 0 C2.475 1.485 2.475 1.485 5 3 C4.56947157 7.8763934 2.51407503 9.96986995 -0.9375 13.3125 C-2.28134766 14.63701172 -2.28134766 14.63701172 -3.65234375 15.98828125 C-6 18 -6 18 -8 18 C-8 18.66 -8 19.32 -8 20 C-8.66 20 -9.32 20 -10 20 C-10 20.66 -10 21.32 -10 22 C-11.86347491 23.52493855 -13.70381686 24.89631577 -15.6875 26.25 C-16.27402344 26.65041504 -16.86054688 27.05083008 -17.46484375 27.46337891 C-28.38548386 34.72922146 -41.56658052 40.93417382 -55 40 C-55.99 39.34 -56.98 38.68 -58 38 C-58 37.34 -58 36.68 -58 36 C-54.71303767 35.20046862 -53.28976808 34.90341064 -50 36 C-50 35.34 -50 34.68 -50 34 C-45.8794254 32.00214565 -42.54805635 31.82164485 -38 32 C-38 31.34 -38 30.68 -38 30 C-37.36191406 29.66226562 -36.72382813 29.32453125 -36.06640625 28.9765625 C-35.24011719 28.53054688 -34.41382813 28.08453125 -33.5625 27.625 C-32.73878906 27.18414062 -31.91507813 26.74328125 -31.06640625 26.2890625 C-28.86533422 25.16581441 -28.86533422 25.16581441 -28 23 C-27.01 23 -26.02 23 -25 23 C-24.731875 22.360625 -24.46375 21.72125 -24.1875 21.0625 C-23 19 -23 19 -20 18 C-19.505 16.515 -19.505 16.515 -19 15 C-17.35 14.67 -15.7 14.34 -14 14 C-14.495 12.515 -14.495 12.515 -15 11 C-14.34 10.67 -13.68 10.34 -13 10 C-12.01 10.33 -11.02 10.66 -10 11 C-10.495 9.02 -10.495 9.02 -11 7 C-9.02 6.67 -7.04 6.34 -5 6 C-5 5.01 -5 4.02 -5 3 C-2.5 1.3125 -2.5 1.3125 0 0 Z " fill="#303032" transform="translate(277,281)"/>
<path d="M0 0 C1.875 1 1.875 1 3 3 C3.41998341 5.85238734 3.27946081 8.06566149 3 11 C0 13 0 13 -3.5625 12.75 C-7 12 -7 12 -9 10 C-9.55021834 3.94759825 -9.55021834 3.94759825 -7.875 1.0625 C-5.11019567 -0.50422245 -3.11811483 -0.38976435 0 0 Z " fill="#272727" transform="translate(339,197)"/>
<path d="M0 0 C5.625 -0.25 5.625 -0.25 9 2 C9.36328125 3.875 9.36328125 3.875 9.3125 6 C9.30863281 6.70125 9.30476563 7.4025 9.30078125 8.125 C9 10 9 10 7 12 C3.5 12.25 3.5 12.25 0 12 C-2 10 -2 10 -2.1953125 8.0546875 C-2.13020833 6.03645833 -2.06510417 4.01822917 -2 2 C-1.34 2 -0.68 2 0 2 C0 1.34 0 0.68 0 0 Z " fill="#292929" transform="translate(315,168)"/>
<path d="M0 0 C4.75 0.75 4.75 0.75 7 3 C7.3125 6 7.3125 6 7 9 C4 11 4 11 0.8125 10.625 C-0.5796875 10.315625 -0.5796875 10.315625 -2 10 C-2.6875 7.25 -2.6875 7.25 -3 4 C-1.5625 1.625 -1.5625 1.625 0 0 Z " fill="#303030" transform="translate(315,201)"/>
<path d="M0 0 C2.875 -0.125 2.875 -0.125 6 0 C8 2 8 2 8.25 5 C8 8 8 8 6 10 C3 10.3125 3 10.3125 0 10 C-2 7 -2 7 -1.6875 4.4375 C-1 2 -1 2 0 0 Z " fill="#242424" transform="translate(309,242)"/>
<path d="M0 0 C2.875 -0.125 2.875 -0.125 6 0 C8 2 8 2 8.3125 5 C8.1578125 6.485 8.1578125 6.485 8 8 C5 10 5 10 2.4375 9.75 C0 9 0 9 -2 7 C-1.6730244 4.38419521 -1.17960932 2.35921863 0 0 Z " fill="#333334" transform="translate(285,274)"/>
<path d="M0 0 C-0.33 0.99 -0.66 1.98 -1 3 C-6.625 3.25 -6.625 3.25 -10 1 C-10 0.34 -10 -0.32 -10 -1 C-6.18510326 -2.46726798 -3.70988378 -1.43336419 0 0 Z " fill="#2D2D2C" transform="translate(229,318)"/>
<path d="M0 0 C0 0.66 0 1.32 0 2 C0.66 2.33 1.32 2.66 2 3 C2 3.99 2 4.98 2 6 C-1.48670834 4.8905928 -4.77484237 3.73662334 -8 2 C-8 1.34 -8 0.68 -8 0 C-4.71023192 -1.09658936 -3.28696233 -0.79953138 0 0 Z " fill="#838383" transform="translate(183,310)"/>
<path d="M0 0 C4.62 0.66 9.24 1.32 14 2 C10.2794164 4.48038907 8.40203429 4.46337203 4 4 C2.68 2.68 1.36 1.36 0 0 Z " fill="#0C0C0B" transform="translate(183,313)"/>
<path d="M0 0 C1.98 0 3.96 0 6 0 C3.42215154 2.64752004 1.08351902 4.94432065 -2 7 C-1.125 2.25 -1.125 2.25 0 0 Z " fill="#474746" transform="translate(309,242)"/>
</svg>
